PathFileType	4	(X/Y/Z)	S01_0003_Gait_markers.trc
DataRate	CameraRate	NumFrames	NumMarkers	Units	OrigDataRate	OrigDataStartFrame	OrigNumFrames
250.000000	250.000000	4	54	mm	250.000000	39	314
Frame#	Time	HEAD_ANT			R_HEAD			L_HEAD			C7			R_BACK			L_BACK			STERNUM			R_ACROMION			R_HUM_PROX			R_HUM_ANT			R_HUM_POST			R_ELBOW_LAT			R_ELBOW_MED			R_FOREARM			R_WIRST_LAT			R_WRITS_MED			R_HAND			L_ACROMION			L_HUM_PROX			L_HUM_ANT			L_HUM_POST			L_ELBOW_LAT			L_ELBOW_MED			L_FOREARM			L_WRIST_LAT			L_WIRST_MED			L_HAND			R_ILIAC			SACRUM			L_ILIAC			R_GTROCH			R_THIGH__1			R_THIGH_2			R_THIGH_3			R_THIGH_4			R_SHANK_1			R_SHANK_2			R_SHANK_3			R_SHANK_4			R_HEEL			R_FOOT_LAT			R_FOOT_MED			L_GTROCH			L_THIGH_1			L_THIGH_2			L_THIGH_3			L_THIGH_4			L_SHANK_1			L_SHANK_2			L_SHANK_3			L_SHANK_4			L_HEEL			L_FOOT_LAT			L_FOOT_MED			
		X1	Y1	Z1	X2	Y2	Z2	X3	Y3	Z3	X4	Y4	Z4	X5	Y5	Z5	X6	Y6	Z6	X7	Y7	Z7	X8	Y8	Z8	X9	Y9	Z9	X10	Y10	Z10	X11	Y11	Z11	X12	Y12	Z12	X13	Y13	Z13	X14	Y14	Z14	X15	Y15	Z15	X16	Y16	Z16	X17	Y17	Z17	X18	Y18	Z18	X19	Y19	Z19	X20	Y20	Z20	X21	Y21	Z21	X22	Y22	Z22	X23	Y23	Z23	X24	Y24	Z24	X25	Y25	Z25	X26	Y26	Z26	X27	Y27	Z27	X28	Y28	Z28	X29	Y29	Z29	X30	Y30	Z30	X31	Y31	Z31	X32	Y32	Z32	X33	Y33	Z33	X34	Y34	Z34	X35	Y35	Z35	X36	Y36	Z36	X37	Y37	Z37	X38	Y38	Z38	X39	Y39	Z39	X40	Y40	Z40	X41	Y41	Z41	X42	Y42	Z42	X43	Y43	Z43	X44	Y44	Z44	X45	Y45	Z45	X46	Y46	Z46	X47	Y47	Z47	X48	Y48	Z48	X49	Y49	Z49	X50	Y50	Z50	X51	Y51	Z51	X52	Y52	Z52	X53	Y53	Z53	X54	Y54	Z54	

40	0.156	431.9416809082031	1716.295288085938	-287.253753662109	370.9125671386719	1665.904418945312	-212.4656982421871	373.3289489746094	1670.914794921875	-359.6910705566402	229.8805847167969	1500.7490234375	-300.9737548828122	153.5902557373047	1301.840698242188	-245.8299560546872	167.5599822998047	1306.338134765625	-384.4592285156247	406.1004943847656	1337.922729492188	-281.7229309082028	291.4949951171875	1447.687255859375	-120.4883422851559	245.4129791259766	1282.947509765625	-40.048286437988	306.6076354980469	1197.395629882812	-34.94592285156224	185.0167846679688	1199.0546875	-37.37253952026341	229.9990997314453	1093.318237304688	-32.58525466918921	222.1669158935547	1091.986328125	-112.3802032470701	314.1893005371094	905.5465087890625	-15.60574245452861	354.4108276367188	836.9013671875	-48.91946029663067	279.8813781738281	818.7442016601562	-24.44336700439435	340.0111999511719	746.831298828125	1.479243755340742	329.10888671875	1456.945068359375	-460.4739074707028	324.9542236328125	1288.912719726563	-555.2546386718747	385.137939453125	1208.6962890625	-540.2631835937498	270.2910461425781	1210.3447265625	-586.4215087890623	328.1275024414062	1106.03955078125	-583.2828369140623	271.0328979492188	1102.26416015625	-533.1026611328123	448.1554260253906	943.4694213867189	-544.0924072265623	488.5025634765625	894.7695922851564	-488.3314514160155	442.2994689941406	857.7811279296876	-541.9260253906248	527.1473388671875	818.3202514648439	-530.0167846679685	302.9073486328125	1057.831665039062	-128.6368103027341	182.608642578125	1021.777038574219	-301.8765563964841	319.4585876464844	1042.837158203125	-470.9541320800779	279.229736328125	907.361328125	-114.5237731933592	402.8362426757812	642.9170532226562	-138.498825073242	450.8456115722656	676.26171875	-137.6590881347655	485.228271484375	581.2890625	-177.4745635986327	423.908447265625	565.74560546875	-160.4078216552733	449.9581604003906	344.5372009277344	-155.458526611328	503.6259155273438	328.6951599121094	-179.2881622314452	504.0975646972656	244.3790588378907	-197.4188995361328	442.6838989257812	244.7399139404297	-177.0455017089843	404.1798400878906	39.18699645996099	-261.1324462890625	568.9235229492188	20.58478355407719	-180.2625579833984	619.2942504882812	33.42569351196295	-282.2222595214844	264.9994506835938	930.4239501953126	-478.0671386718748	302.9547729492188	640.3698730468751	-477.9425659179686	253.18017578125	670.7698974609376	-488.8534851074217	221.878662109375	570.5311279296876	-468.6815185546874	285.0826721191406	561.2089233398439	-464.066680908203	92.56483459472656	344.8407592773439	-466.7084350585937	36.86252975463867	369.6864318847657	-466.5657653808593	-24.57519912719727	308.8106689453126	-451.3697814941406	25.44479179382324	268.496551513672	-446.9266967773437	-171.8513641357422	220.7181549072266	-387.3523864746093	-123.8861083984375	43.52391052246103	-423.4992980957031	-99.14190673828125	44.42314147949226	-324.5779724121094	
41	0.16	437.7163696289062	1716.663330078125	-286.7458801269527	376.7013549804688	1666.475463867188	-211.9937744140621	378.9414367675781	1671.515380859375	-359.1507568359371	235.4308624267578	1501.129150390625	-300.4443664550778	159.6616363525391	1302.22705078125	-244.9927062988278	173.4446411132812	1307.116455078125	-384.1101989746091	412.0556030273438	1338.587036132812	-281.3177185058591	297.6072998046875	1448.329345703125	-120.0546264648434	252.0127258300781	1283.570434570312	-39.09348297119112	313.0794067382812	1198.102416992188	-34.31090545654271	191.5807037353516	1199.506103515625	-36.85743331909153	236.6574249267578	1094.002319335938	-32.11675262451148	226.5721130371094	1092.557739257812	-113.2262802124021	321.2499694824219	906.1226806640625	-15.53892707824687	361.2821350097656	836.8345336914062	-52.2930259704588	286.6831359863281	819.3472900390625	-24.97484016418439	347.1828308105469	747.5301513671875	1.39060020446794	334.8718872070312	1457.611206054688	-459.8948059082028	330.4403991699219	1289.67724609375	-554.9898071289059	390.6131286621094	1209.158203125	-540.0939941406248	275.6763305664062	1211.270874023438	-585.7625732421873	333.3442687988281	1106.7822265625	-582.8173828124998	276.4424133300781	1103.278198242188	-532.4904785156248	452.9118957519531	943.7016601562501	-544.1173706054685	492.9187316894531	894.3859252929689	-487.5370178222655	446.5373840332031	857.9284057617189	-542.181945800781	531.0707397460938	817.8764038085939	-530.4647827148435	309.1648864746094	1058.988037109375	-129.7696533203123	188.6394500732422	1022.105224609375	-301.2193908691404	324.890625	1043.7470703125	-470.9868164062498	285.4046936035156	907.5977783203125	-113.6753845214842	407.5411071777344	643.04296875	-138.2213745117186	455.6874389648438	675.96826171875	-137.4587402343749	490.2305603027344	580.9959106445312	-177.0202789306639	428.0859680175781	565.65576171875	-160.6489410400389	452.4999694824219	344.5148925781251	-156.1752319335937	506.0769653320312	328.1772155761719	-179.775161743164	506.0284729003906	243.7825927734376	-198.0043792724609	444.6403503417969	244.6517181396485	-177.7457427978515	404.4367065429688	39.40784454345709	-261.3601684570312	569.0843505859375	20.63415145874027	-180.3166961669922	619.9320678710938	32.56924438476569	-282.8179626464844	271.2477722167969	930.5697631835939	-477.2807006835935	311.5000305175781	640.4423217773439	-478.4513244628905	261.5332946777344	670.1116943359376	-488.7532958984373	231.2011871337891	569.7541503906251	-468.7619628906249	294.5476684570312	561.4892578125001	-465.0441284179686	101.6563873291016	345.4625244140626	-467.5993347167968	46.50979995727539	370.9270324707032	-466.9466247558593	-15.7517728805542	310.3128662109376	-451.8646850585937	33.74921417236328	269.6323547363282	-447.4569702148437	-163.0379943847656	225.0875091552735	-388.2618408203124	-119.5317153930664	46.90555953979501	-423.8332824707031	-95.60796356201172	46.95345687866218	-325.2597045898438	
42	0.164	443.5445251464844	1717.449584960938	-286.1646728515621	382.4677734375	1666.957885742188	-211.4010467529293	384.634033203125	1672.225952148438	-358.6511230468746	241.1390991210938	1501.6083984375	-299.9540710449215	165.7047576904297	1302.711303710938	-244.2213745117185	179.3018341064453	1307.802490234375	-383.7120056152341	417.9964904785156	1339.27001953125	-281.0806884765622	303.7343139648438	1448.993896484375	-119.5115890502926	258.4114685058594	1284.20703125	-38.43359756469698	319.5126037597656	1198.802368164062	-33.74144363403294	198.0946807861328	1200.070068359375	-36.19705581665012	243.2736511230469	1094.62158203125	-31.4207439422605	234.9446716308594	1093.159423828125	-111.0919265747068	328.1925354003906	906.8377075195312	-15.27666091918925	368.2868041992188	838.1275634765625	-49.49251556396466	294.0091247558594	820.0347290039062	-24.21409225463849	354.4443359375	748.1765747070312	1.200350999832319	340.5704956054688	1458.20458984375	-459.3126525878903	335.8005065917969	1290.417724609375	-554.6655883789059	396.0069274902344	1209.787719726563	-539.9120483398435	281.0087585449219	1211.914428710938	-585.098205566406	338.3419494628906	1107.4345703125	-582.3649902343748	281.5901794433594	1103.91015625	-531.9411621093748	457.4347534179688	943.7641601562501	-544.2399902343748	497.3139343261719	894.1852416992189	-487.7460632324217	450.8856811523438	858.1336669921876	-542.5036010742185	535.06396484375	817.4868774414064	-530.9558105468748	315.5124206542969	1058.957885742188	-129.2739410400388	194.4761047363281	1022.634338378906	-300.5978088378904	330.8566284179688	1044.354614257812	-470.2831115722654	289.0717163085938	907.904541015625	-113.279457092285	412.0344543457031	643.2102661132812	-138.0626525878905	460.2867736816406	675.4857788085938	-138.7721862792967	494.4651794433594	580.7196655273438	-176.930206298828	432.0168151855469	565.708984375	-161.0000152587889	454.6753234863281	344.4502563476563	-156.6964721679687	508.3597106933594	327.8025817871094	-180.0030975341796	507.7334899902344	243.2341003417969	-198.3038024902343	446.18212890625	244.6413879394532	-178.3799438476562	404.6145324707031	39.59487915039068	-261.652099609375	569.1773681640625	20.5901260375977	-180.2886657714844	620.3901977539062	31.78522300720221	-283.3451843261719	277.279296875	930.4901733398439	-476.6056823730466	320.2681579589844	640.4966430664064	-478.8815612792967	269.5838012695312	670.0228271484376	-489.2982788085936	240.79248046875	569.0317382812501	-469.2905883789061	304.0680236816406	560.8446044921876	-465.5582275390624	111.2240447998047	345.6097106933595	-467.3333740234374	56.12804412841797	371.850555419922	-467.4201049804687	-6.678781032562256	312.2785644531251	-452.0763549804687	42.25271224975586	270.8057861328126	-447.9125671386718	-153.9029998779297	229.678695678711	-388.9663085937499	-114.958366394043	50.4804229736329	-424.5518798828125	-91.75906372070312	49.57559585571296	-325.7186584472656	
43	0.168	449.2660217285156	1718.104125976562	-285.765228271484	388.09375	1667.607788085938	-210.8830261230465	390.2551879882812	1672.84814453125	-358.1833801269527	246.9315185546875	1502.096801757812	-299.290374755859	171.7721710205078	1303.44970703125	-243.5119323730466	185.0239410400391	1308.433471679688	-383.4077148437497	423.858642578125	1339.967041015625	-280.803283691406	309.8604125976562	1449.660522460938	-119.0374603271481	264.8363647460938	1284.830688476562	-37.79393768310518	325.9913024902344	1199.461791992188	-33.19327545165989	204.4471130371094	1200.601440429688	-35.64433670043918	249.9051971435547	1094.99755859375	-30.93693542480445	239.3269348144531	1093.42041015625	-112.0697250366209	334.988525390625	907.4861450195312	-14.9399414062498	375.3070373535156	838.4525756835938	-52.36996078491192	301.2662048339844	820.6437377929688	-24.00179100036603	361.8339538574219	748.9659423828125	1.060196757316756	346.0048217773438	1458.861450195312	-458.9184570312497	341.3231506347656	1291.108642578125	-554.2357788085934	401.2610473632812	1210.419189453125	-539.629455566406	286.1267700195312	1212.806030273438	-584.7783203124998	343.609130859375	1107.932006835938	-581.8895263671873	287.0259399414062	1104.673095703125	-531.373596191406	462.1011962890625	943.8835449218751	-544.3154296874998	501.8013916015625	893.8297729492189	-487.8709411621092	455.2336730957031	858.1674804687501	-542.0839233398435	539.0321655273438	817.0694580078126	-531.5868530273435	321.6761169433594	1059.5263671875	-128.990768432617	199.8841705322266	1023.028869628906	-300.3330383300779	335.9528503417969	1045.09423828125	-469.5368347167966	294.6192626953125	907.9843139648438	-112.6404190063475	416.4380798339844	643.2637329101562	-138.3123321533202	465.0079345703125	675.4070434570312	-137.1961059570311	497.4989624023438	579.86572265625	-177.3672943115233	435.8215942382812	565.5849609375	-160.8744201660155	456.6614074707031	344.3427429199219	-157.2328796386718	510.3177795410156	327.3406372070313	-180.165557861328	509.2081604003906	242.8145294189454	-198.4479522705078	447.5736083984375	244.6437225341797	-178.7921600341796	404.7741394042969	39.77312469482428	-261.7882690429688	569.2694702148438	20.56185531616215	-180.2265625	620.816650390625	31.06293487548835	-283.833251953125	283.3977355957031	930.7500610351564	-475.867004394531	328.782470703125	640.6099853515626	-479.4268493652342	278.2299194335938	669.5548706054689	-488.7093505859373	250.0477600097656	568.3187866210939	-469.2652587890624	313.73974609375	561.3673706054689	-466.4826660156249	120.6367111206055	346.1612854003907	-468.2616577148437	65.89471435546875	372.9260559082032	-467.8528442382812	2.384585857391357	314.209197998047	-451.9435424804687	50.85338973999023	272.2261047363282	-448.3105468749999	-143.0314025878906	233.9817962646485	-389.7655334472656	-109.895751953125	54.26660919189462	-425.8661499023438	-87.35158538818359	52.31270599365241	-326.5793762207031	
